# Made in Blockbench 4.8.3
mtllib gib2.mtl

o cuboid
v 0.25 0.625 0.25
v 0.0625 0.75 -0.125
v 0.25 0.4375 0.25
v 0.25 0.25 -0.0625
v -0.25 0.75 0.0625
v -0.25 0.75 -0.125
v -0.25 0.4375 0.25
v -0.25 0.25 -0.25
vt 0.78125 0.3125
vt 0.59375 0.25
vt 0.59375 0.0625
vt 0.75 0.0625
vt 0.25 0.6019034502049591
vt 0.25 0.9281630286084137
vt 0 1
vt 0.01795924284789671 0.7336045644228673
vt 0.28125 0.884225340024746
vt 0.3198285282320049 0.6127377053837405
vt 0.5 0.7158314653176472
vt 0.5 1
vt 0.6875 0.97644375
vt 0.53125 0.97644375
vt 0.53125 0.71875
vt 0.78125 0.733909375
vt 0.2393407394102044 0.31715460875391166
vt 0.25898330803994196 0.5036228888919182
vt 0 0.59375
vt 0 0.2795209528042283
vt 0.686375 0.5694875
vt 0.39156250000000004 0.5694875
vt 0.375 0.3180875000000001
vt 0.6366875 0.3125
vn 0.8944271909999161 0 -0.44721359549995804
vn -1 0 0
vn 0.14739745880782829 0.9580834822508838 0.24566243134638047
vn 0 -0.8574929257125443 0.5144957554275266
vn -0.3511234415883917 0 0.9363291775690445
vn 0 -0.12403473458920847 -0.9922778767136677
usemtl m_752794aa-129a-b09e-fd56-8b39198cf47d
f 2/1/1 1/2/1 3/3/1 4/4/1
f 7/5/2 5/6/2 6/7/2 8/8/2
f 5/9/3 1/10/3 2/11/3 6/12/3
f 4/13/4 3/14/4 7/15/4 8/16/4
f 3/17/5 1/18/5 5/19/5 7/20/5
f 6/21/6 2/22/6 4/23/6 8/24/6